M48
;Layer_Color=9474304
;FILE_FORMAT=4:4
METRIC,LZ
;TYPE=PLATED
T1F00S00C0.6000
T2F00S00C0.8000
T3F00S00C0.8128
T4F00S00C0.8890
T5F00S00C0.9000
;TYPE=NON_PLATED
T6F00S00C1.0000
%
T01
X0128651Y0039878
Y0042418
Y0044958
Y0047498
Y0050038
Y0052578
Y0055118
Y0057658
Y0060198
Y0062738
Y0065278
Y0067818
Y0070358
Y0072898
Y0075438
Y0077978
X0113411
Y0075438
Y0072898
Y0070358
Y0067818
Y0065278
Y0062738
Y0060198
Y0057658
Y0055118
Y0052578
Y0050038
Y0047498
Y0044958
Y0042418
Y0039878
X0105156Y0061722
Y0064262
Y0066802
Y0069342
Y0071882
Y0074422
Y0076962
Y0079502
X0113411Y0080518
Y0083058
Y0085598
Y0088138
X0128651
Y0085598
Y0083058
Y0080518
T02
X0104394Y0042244
Y0044744
Y0047244
Y0049744
T03
X0140335Y0054102
Y0056642
T04
X0138938Y0037084
Y0039624
Y0042164
Y0044704
Y0047244
T05
X0113627Y0093949
Y0095949
Y0097949
Y0099949
Y0101949
Y0103949
Y0105949
Y0107949
X0127127
Y0105949
Y0103949
Y0101949
Y0099949
Y0097949
Y0095949
Y0093949
T06
X0138176Y0066675
Y0069215
Y0071755
M30
