G04*
G04 #@! TF.GenerationSoftware,Altium Limited,Altium Designer,21.3.2 (30)*
G04*
G04 Layer_Color=16711935*
%FSLAX44Y44*%
%MOMM*%
G71*
G04*
G04 #@! TF.SameCoordinates,1BCB905A-A0B2-44AB-9C87-BC35C0DBCD6E*
G04*
G04*
G04 #@! TF.FilePolarity,Negative*
G04*
G01*
G75*
%ADD24C,1.4032*%
%ADD25R,1.4032X1.4032*%
%ADD26C,1.5032*%
%ADD27R,1.5032X1.5032*%
%ADD28R,2.7032X1.4032*%
%ADD29O,2.7032X1.4032*%
%ADD30O,2.1082X1.9812*%
%ADD31R,1.9812X1.9812*%
%ADD32R,2.7432X1.8542*%
%ADD33O,2.7432X1.8542*%
%ADD34R,1.7272X1.7272*%
%ADD35C,1.7272*%
D24*
X1051560Y795020D02*
D03*
Y769620D02*
D03*
Y744220D02*
D03*
Y718820D02*
D03*
Y693420D02*
D03*
Y668020D02*
D03*
Y642620D02*
D03*
D25*
Y617220D02*
D03*
D26*
X1271270Y939490D02*
D03*
Y959490D02*
D03*
Y979490D02*
D03*
Y999490D02*
D03*
Y1019490D02*
D03*
Y1039490D02*
D03*
Y1059490D02*
D03*
Y1079490D02*
D03*
X1136270Y939490D02*
D03*
Y959490D02*
D03*
Y979490D02*
D03*
Y999490D02*
D03*
Y1019490D02*
D03*
Y1039490D02*
D03*
Y1059490D02*
D03*
D27*
Y1079490D02*
D03*
D28*
X1043940Y497440D02*
D03*
X1134110Y881380D02*
D03*
D29*
X1043940Y472440D02*
D03*
Y447440D02*
D03*
Y422440D02*
D03*
X1134110Y855980D02*
D03*
Y830580D02*
D03*
Y805180D02*
D03*
Y779780D02*
D03*
Y754380D02*
D03*
Y728980D02*
D03*
Y703580D02*
D03*
Y678180D02*
D03*
Y652780D02*
D03*
Y627380D02*
D03*
Y601980D02*
D03*
Y576580D02*
D03*
Y551180D02*
D03*
Y525780D02*
D03*
Y500380D02*
D03*
Y474980D02*
D03*
Y449580D02*
D03*
Y424180D02*
D03*
Y398780D02*
D03*
X1286510Y881380D02*
D03*
Y855980D02*
D03*
Y830580D02*
D03*
Y805180D02*
D03*
Y779780D02*
D03*
Y754380D02*
D03*
Y728980D02*
D03*
Y703580D02*
D03*
Y678180D02*
D03*
Y652780D02*
D03*
Y627380D02*
D03*
Y601980D02*
D03*
Y576580D02*
D03*
Y551180D02*
D03*
Y525780D02*
D03*
Y500380D02*
D03*
Y474980D02*
D03*
Y449580D02*
D03*
Y424180D02*
D03*
Y398780D02*
D03*
D30*
X1381760Y666750D02*
D03*
Y692150D02*
D03*
D31*
Y717550D02*
D03*
D32*
X1403350Y541020D02*
D03*
D33*
Y566420D02*
D03*
D34*
X1389380Y472440D02*
D03*
D35*
Y447040D02*
D03*
Y421640D02*
D03*
Y396240D02*
D03*
Y370840D02*
D03*
M02*
