G04*
G04 #@! TF.GenerationSoftware,Altium Limited,Altium Designer,21.3.2 (30)*
G04*
G04 Layer_Physical_Order=2*
G04 Layer_Color=16711680*
%FSLAX44Y44*%
%MOMM*%
G71*
G04*
G04 #@! TF.SameCoordinates,15FDCA04-2CEF-4106-A30F-2144B3535DD6*
G04*
G04*
G04 #@! TF.FilePolarity,Positive*
G04*
G01*
G75*
%ADD10C,0.5080*%
%ADD11R,1.3000X1.3000*%
%ADD12C,1.3000*%
%ADD13R,2.5000X1.2000*%
%ADD14O,2.5000X1.2000*%
%ADD15R,2.5400X1.7780*%
%ADD16O,2.5400X1.7780*%
D10*
X814705Y810895D02*
X913765D01*
X814070Y811530D02*
X814705Y810895D01*
X913765D02*
X914400Y810260D01*
X814705Y785495D02*
X913765D01*
X914400Y784860D01*
X814070Y786130D02*
X814705Y785495D01*
Y760095D02*
X913765D01*
X814070Y760730D02*
X814705Y760095D01*
X913765D02*
X914400Y759460D01*
X814705Y734695D02*
X913765D01*
X914400Y734060D01*
X814070Y735330D02*
X814705Y734695D01*
Y709295D02*
X913765D01*
X914400Y708660D01*
X814070Y709930D02*
X814705Y709295D01*
Y683895D02*
X913765D01*
X914400Y683260D01*
X814070Y684530D02*
X814705Y683895D01*
X815340Y657860D02*
X914400D01*
X814070Y659130D02*
X815340Y657860D01*
X814705Y631825D02*
X913765D01*
X914400Y632460D01*
X814070Y631190D02*
X814705Y631825D01*
Y606425D02*
X913765D01*
X814070Y605790D02*
X814705Y606425D01*
X913765D02*
X914400Y607060D01*
X814705Y581025D02*
X913765D01*
X914400Y581660D01*
X814070Y580390D02*
X814705Y581025D01*
Y555625D02*
X913765D01*
X814070Y554990D02*
X814705Y555625D01*
X913765D02*
X914400Y556260D01*
X814705Y530225D02*
X913765D01*
X914400Y530860D01*
X814070Y529590D02*
X814705Y530225D01*
Y504825D02*
X913765D01*
X814070Y504190D02*
X814705Y504825D01*
X913765D02*
X914400Y505460D01*
X814705Y479425D02*
X913765D01*
X814070Y478790D02*
X814705Y479425D01*
X913765D02*
X914400Y480060D01*
X815340Y454660D02*
X914400D01*
X814070Y453390D02*
X815340Y454660D01*
X1169035Y455295D02*
X1261745D01*
X1168400Y454660D02*
X1169035Y455295D01*
X1261745D02*
X1262380Y455930D01*
X1169035Y480695D02*
X1261745D01*
X1168400Y480060D02*
X1169035Y480695D01*
X1261745D02*
X1262380Y481330D01*
X1169035Y506095D02*
X1261745D01*
X1262380Y506730D01*
X1168400Y505460D02*
X1169035Y506095D01*
Y531495D02*
X1261745D01*
X1168400Y530860D02*
X1169035Y531495D01*
X1261745D02*
X1262380Y532130D01*
X1169035Y556895D02*
X1261745D01*
X1168400Y556260D02*
X1169035Y556895D01*
X1261745D02*
X1262380Y557530D01*
X1169035Y582295D02*
X1261745D01*
X1262380Y582930D01*
X1168400Y581660D02*
X1169035Y582295D01*
Y607695D02*
X1261745D01*
X1262380Y608330D01*
X1168400Y607060D02*
X1169035Y607695D01*
X1263650Y660400D02*
X1279525D01*
X1169670Y656590D02*
X1262380D01*
X1263650Y655320D01*
X1168400Y657860D02*
X1169670Y656590D01*
X1262380Y681990D02*
X1263650Y680720D01*
X1169670Y681990D02*
X1262380D01*
X1168400Y683260D02*
X1169670Y681990D01*
X1168400Y708660D02*
X1169670Y707390D01*
X1262380D01*
X1263650Y706120D01*
X1169670Y732790D02*
X1262380D01*
X1168400Y734060D02*
X1169670Y732790D01*
X1262380D02*
X1263650Y731520D01*
X1168400Y759460D02*
X1169670Y758190D01*
X1262380D01*
X1263650Y756920D01*
X1169670Y783590D02*
X1262380D01*
X1168400Y784860D02*
X1169670Y783590D01*
X1262380D02*
X1263650Y782320D01*
X1168400Y810260D02*
X1261110D01*
X1263650Y807720D01*
X1046160Y1063370D02*
X1061272Y1048258D01*
X1117600D01*
X1121664Y1052322D01*
Y1079500D01*
X1106170Y1094994D02*
X1121664Y1079500D01*
X885190Y1094994D02*
X1106170D01*
X795020Y1004824D02*
X885190Y1094994D01*
X795020Y441325D02*
Y1004824D01*
Y441325D02*
X798195Y438150D01*
X1024890D01*
X1041400Y454660D01*
X1168400D01*
X1066160Y928370D02*
Y937001D01*
X1082167Y953008D01*
X1155700D01*
X1168400Y940308D01*
Y810260D02*
Y940308D01*
Y632460D02*
X1214120D01*
X1215390Y633730D01*
X1262380D01*
X1041400Y632460D02*
X1168400D01*
X1026160Y647700D02*
X1041400Y632460D01*
X1026160Y647700D02*
Y928370D01*
X1053078Y1076452D02*
X1066160Y1063370D01*
X955040Y1076452D02*
X1053078D01*
X953262Y1074674D02*
X955040Y1076452D01*
X953262Y1054100D02*
Y1074674D01*
Y1054100D02*
X971042Y1036320D01*
X1124204D01*
X1130554Y1042670D01*
Y1092454D01*
X1117600Y1105408D02*
X1130554Y1092454D01*
X852932Y1105408D02*
X1117600D01*
X786130Y1038606D02*
X852932Y1105408D01*
X786130Y431800D02*
Y1038606D01*
Y431800D02*
X792480Y425450D01*
X1265936D01*
X1281430Y440944D01*
Y527812D01*
X1277112Y532130D02*
X1281430Y527812D01*
X1262380Y532130D02*
X1277112D01*
X1086160Y928370D02*
X1099114Y941324D01*
X1123188D01*
X1137412Y927100D01*
Y698500D02*
Y927100D01*
Y698500D02*
X1152652Y683260D01*
X1168400D01*
X1106160Y495300D02*
Y928370D01*
Y495300D02*
X1121400Y480060D01*
X1168400D01*
X1279525Y660400D02*
X1282700Y663575D01*
Y860552D01*
X1180592Y962660D02*
X1282700Y860552D01*
X1066800Y962660D02*
X1180592D01*
X1046160Y942020D02*
X1066800Y962660D01*
X1046160Y928370D02*
Y942020D01*
X914400Y556260D02*
X990920D01*
X1006160Y571500D01*
Y928370D01*
D11*
X1106160Y1063370D02*
D03*
D12*
X1086160D02*
D03*
X1066160D02*
D03*
X1046160D02*
D03*
X1026160D02*
D03*
X1006160D02*
D03*
X986160D02*
D03*
X966160D02*
D03*
X1106160Y928370D02*
D03*
X1086160D02*
D03*
X1066160D02*
D03*
X1046160D02*
D03*
X1026160D02*
D03*
X1006160D02*
D03*
X986160D02*
D03*
X966160D02*
D03*
D13*
X914400Y810260D02*
D03*
D14*
Y784860D02*
D03*
Y759460D02*
D03*
Y734060D02*
D03*
Y708660D02*
D03*
Y683260D02*
D03*
Y657860D02*
D03*
Y632460D02*
D03*
Y607060D02*
D03*
Y581660D02*
D03*
Y556260D02*
D03*
Y530860D02*
D03*
Y505460D02*
D03*
Y480060D02*
D03*
Y454660D02*
D03*
X1168400Y810260D02*
D03*
Y784860D02*
D03*
Y759460D02*
D03*
Y734060D02*
D03*
Y708660D02*
D03*
Y683260D02*
D03*
Y657860D02*
D03*
Y632460D02*
D03*
Y607060D02*
D03*
Y581660D02*
D03*
Y556260D02*
D03*
Y530860D02*
D03*
Y505460D02*
D03*
Y480060D02*
D03*
Y454660D02*
D03*
D15*
X1263650Y807720D02*
D03*
X814070Y659130D02*
D03*
Y453390D02*
D03*
X1262380Y633730D02*
D03*
D16*
X1263650Y782320D02*
D03*
Y756920D02*
D03*
Y731520D02*
D03*
Y706120D02*
D03*
Y680720D02*
D03*
Y655320D02*
D03*
X814070Y684530D02*
D03*
Y709930D02*
D03*
Y735330D02*
D03*
Y760730D02*
D03*
Y786130D02*
D03*
Y811530D02*
D03*
Y631190D02*
D03*
Y605790D02*
D03*
Y580390D02*
D03*
Y554990D02*
D03*
Y529590D02*
D03*
Y504190D02*
D03*
Y478790D02*
D03*
X1262380Y455930D02*
D03*
Y481330D02*
D03*
Y506730D02*
D03*
Y532130D02*
D03*
Y557530D02*
D03*
Y582930D02*
D03*
Y608330D02*
D03*
M02*
