G04*
G04 #@! TF.GenerationSoftware,Altium Limited,Altium Designer,21.3.2 (30)*
G04*
G04 Layer_Color=16711935*
%FSLAX44Y44*%
%MOMM*%
G71*
G04*
G04 #@! TF.SameCoordinates,15FDCA04-2CEF-4106-A30F-2144B3535DD6*
G04*
G04*
G04 #@! TF.FilePolarity,Negative*
G04*
G01*
G75*
%ADD17R,1.5032X1.5032*%
%ADD18C,1.5032*%
%ADD19R,2.7032X1.4032*%
%ADD20O,2.7032X1.4032*%
%ADD21R,2.7432X1.9812*%
%ADD22O,2.7432X1.9812*%
D17*
X1106160Y1063370D02*
D03*
D18*
X1086160D02*
D03*
X1066160D02*
D03*
X1046160D02*
D03*
X1026160D02*
D03*
X1006160D02*
D03*
X986160D02*
D03*
X966160D02*
D03*
X1106160Y928370D02*
D03*
X1086160D02*
D03*
X1066160D02*
D03*
X1046160D02*
D03*
X1026160D02*
D03*
X1006160D02*
D03*
X986160D02*
D03*
X966160D02*
D03*
D19*
X914400Y810260D02*
D03*
D20*
Y784860D02*
D03*
Y759460D02*
D03*
Y734060D02*
D03*
Y708660D02*
D03*
Y683260D02*
D03*
Y657860D02*
D03*
Y632460D02*
D03*
Y607060D02*
D03*
Y581660D02*
D03*
Y556260D02*
D03*
Y530860D02*
D03*
Y505460D02*
D03*
Y480060D02*
D03*
Y454660D02*
D03*
X1168400Y810260D02*
D03*
Y784860D02*
D03*
Y759460D02*
D03*
Y734060D02*
D03*
Y708660D02*
D03*
Y683260D02*
D03*
Y657860D02*
D03*
Y632460D02*
D03*
Y607060D02*
D03*
Y581660D02*
D03*
Y556260D02*
D03*
Y530860D02*
D03*
Y505460D02*
D03*
Y480060D02*
D03*
Y454660D02*
D03*
D21*
X1263650Y807720D02*
D03*
X814070Y659130D02*
D03*
Y453390D02*
D03*
X1262380Y633730D02*
D03*
D22*
X1263650Y782320D02*
D03*
Y756920D02*
D03*
Y731520D02*
D03*
Y706120D02*
D03*
Y680720D02*
D03*
Y655320D02*
D03*
X814070Y684530D02*
D03*
Y709930D02*
D03*
Y735330D02*
D03*
Y760730D02*
D03*
Y786130D02*
D03*
Y811530D02*
D03*
Y631190D02*
D03*
Y605790D02*
D03*
Y580390D02*
D03*
Y554990D02*
D03*
Y529590D02*
D03*
Y504190D02*
D03*
Y478790D02*
D03*
X1262380Y455930D02*
D03*
Y481330D02*
D03*
Y506730D02*
D03*
Y532130D02*
D03*
Y557530D02*
D03*
Y582930D02*
D03*
Y608330D02*
D03*
M02*
